<?xml version="1.0" encoding="utf-8"?>
<!-- Generator: Adobe Illustrator 16.0.0, SVG Export Plug-In . SVG Version: 6.00 Build 0)  -->
<!DOCTYPE svg PUBLIC "-//W3C//DTD SVG 1.1//EN" "http://www.w3.org/Graphics/SVG/1.1/DTD/svg11.dtd">
<svg version="1.1" id="Layer_1" xmlns="http://www.w3.org/2000/svg" xmlns:xlink="http://www.w3.org/1999/xlink" x="0px" y="0px"
	 width="100px" height="105px" viewBox="0 0 100 105" enable-background="new 0 0 100 105" xml:space="preserve">
<g>
	<circle fill="#393F3F" cx="50" cy="50" r="48"/>
</g>
<g opacity="0.3">
	<path d="M76.256,70.812l-49.049-49.06c-0.469-0.469-1.095-0.728-1.732-0.728c-0.315,0-0.434,0.061-0.737,0.186
		c-0.915,0.379-1.312,1.272-1.312,2.263v13.854c0,0.65,0.059,1.272,0.518,1.732l35.095,35.331c0.46,0.459,0.982,0.851,1.632,0.851
		h13.854c0.99,0,1.884-0.73,2.263-1.646C77.167,72.68,76.957,71.514,76.256,70.812z"/>
	<path d="M63.417,45.376c0.994,0.994,2.416,1.533,4.003,1.533c2.219,0,4.598-1.063,6.365-2.837c2.011-2.02,3.119-4.809,3.119-7.878
		c-0.02-4.025-1.631-7.796-4.541-10.658c-2.865-2.819-6.618-4.296-10.572-4.296c-0.023,0-0.047,0-0.07,0H45.067
		c-0.991,0-1.884,0.525-2.263,1.44c-0.379,0.916-0.169,1.932,0.531,2.633L63.417,45.376z"/>
	<path d="M27.207,56.109c-0.469-0.469-1.095-0.729-1.732-0.729c-0.315,0-0.434,0.061-0.737,0.188
		c-0.915,0.379-1.312,1.271-1.312,2.263v13.714c0,0.096-0.074,0.191-0.067,0.285c-0.005,0.07-0.05,0.14-0.05,0.211
		c0,1.665,1.331,3.016,2.996,3.016c0.03,0,0.05,0.088,0.081,0.088c0.026,0,0.042,0.097,0.07,0.097H40.17
		c0.991,0,1.884-0.73,2.263-1.646c0.379-0.915,0.169-2.081-0.531-2.78L27.207,56.109z"/>
</g>
<g>
	<path fill="#FFFFFF" d="M76.256,72.812l-49.049-49.06c-0.469-0.469-1.095-0.728-1.732-0.728c-0.315,0-0.434,0.061-0.737,0.186
		c-0.915,0.379-1.312,1.272-1.312,2.263v13.854c0,0.65,0.059,1.272,0.518,1.732l35.095,35.331c0.46,0.459,0.982,0.851,1.632,0.851
		h13.854c0.99,0,1.884-0.73,2.263-1.646C77.167,74.68,76.957,73.514,76.256,72.812z"/>
	<path fill="#00C0CF" d="M72.363,27.537c-2.865-2.819-6.618-4.296-10.572-4.296c-0.023,0-0.047,0-0.07,0H45.067
		c-0.991,0-1.884,0.525-2.263,1.44c-0.379,0.916-0.169,1.932,0.531,2.633l20.082,20.063c0.994,0.994,2.416,1.533,4.003,1.533
		c2.219,0,4.598-1.063,6.365-2.837c2.011-2.019,3.119-4.809,3.119-7.878C76.887,34.169,75.273,30.398,72.363,27.537z"/>
	<path fill="#00C0CF" d="M41.901,72.812L27.207,58.109c-0.469-0.469-1.095-0.729-1.732-0.729c-0.315,0-0.434,0.061-0.737,0.188
		c-0.915,0.379-1.312,1.271-1.312,2.263v13.714c0,0.096-0.074,0.191-0.067,0.285c-0.005,0.07-0.05,0.14-0.05,0.211
		c0,1.665,1.331,3.016,2.996,3.016c0.03,0,0.05,0.088,0.081,0.088c0.026,0,0.042,0.097,0.07,0.097H40.17
		c0.991,0,1.884-0.73,2.263-1.646C42.811,74.68,42.601,73.514,41.901,72.812z"/>
</g>
</svg>
