<?xml version="1.0" encoding="utf-8"?>
<!-- Generator: Adobe Illustrator 16.0.0, SVG Export Plug-In . SVG Version: 6.00 Build 0)  -->
<!DOCTYPE svg PUBLIC "-//W3C//DTD SVG 1.1//EN" "http://www.w3.org/Graphics/SVG/1.1/DTD/svg11.dtd">
<svg version="1.1" id="Layer_1" xmlns="http://www.w3.org/2000/svg" xmlns:xlink="http://www.w3.org/1999/xlink" x="0px" y="0px"
	 width="553px" height="79px" viewBox="0 0 553 79" enable-background="new 0 0 553 79" xml:space="preserve">
<linearGradient id="SVGID_1_" gradientUnits="userSpaceOnUse" x1="2.0005" y1="39.8989" x2="545.1809" y2="39.8989">
	<stop  offset="0" style="stop-color:#1FC0CE"/>
	<stop  offset="1" style="stop-color:#393E3E"/>
</linearGradient>
<path fill="url(#SVGID_1_)" d="M4.602,4.896h20.5c6.5,0,9.802,0.7,12.602,2.1c5.8,2.9,9.7,8.801,9.7,16.801c0,10-5.8,17.5-14,19.301
	v0.199c0,0,0.7,0.801,1.6,2.501l15.701,29.103h-5.1L29.003,43.899H8.903v31.002h-4.3L4.602,4.896L4.602,4.896z M27.903,39.899
	c9.2,0,15.001-6.602,15.001-16.102c0-6.201-3.101-11.201-8.201-13.501c-2-0.9-4.2-1.4-9.8-1.4H8.902v31.002H27.903z"/>
<linearGradient id="SVGID_2_" gradientUnits="userSpaceOnUse" x1="2.0005" y1="39.8989" x2="545.1809" y2="39.8989">
	<stop  offset="0" style="stop-color:#1FC0CE"/>
	<stop  offset="1" style="stop-color:#393E3E"/>
</linearGradient>
<path fill="url(#SVGID_2_)" d="M98.501,50.699H68.8l-9,24.202h-4.6l26.2-70.004h4.601l26.202,70.004h-4.602L98.501,50.699z
	 M83.601,9.896c0,0-1.5,5.4-2.6,8.4L70.3,46.699h26.702L86.402,18.297c-1.101-3-2.601-8.4-2.601-8.4L83.601,9.896L83.601,9.896z"/>
<linearGradient id="SVGID_3_" gradientUnits="userSpaceOnUse" x1="2.0005" y1="39.8989" x2="545.1809" y2="39.8989">
	<stop  offset="0" style="stop-color:#1FC0CE"/>
	<stop  offset="1" style="stop-color:#393E3E"/>
</linearGradient>
<path fill="url(#SVGID_3_)" d="M122.298,4.896H157.6v4h-31.002v29.202h26.803v4h-26.802v32.803h-4.3L122.298,4.896L122.298,4.896z"
	/>
<linearGradient id="SVGID_4_" gradientUnits="userSpaceOnUse" x1="2.0005" y1="39.8989" x2="545.1809" y2="39.8989">
	<stop  offset="0" style="stop-color:#1FC0CE"/>
	<stop  offset="1" style="stop-color:#393E3E"/>
</linearGradient>
<path fill="url(#SVGID_4_)" d="M201.801,50.699h-29.702l-9,24.202h-4.6l26.201-70.004h4.601l26.201,70.004h-4.601L201.801,50.699z
	 M186.901,9.896c0,0-1.5,5.4-2.602,8.4l-10.701,28.401H200.3l-10.6-28.4c-1.102-3-2.602-8.4-2.602-8.4L186.901,9.896L186.901,9.896z
	"/>
<linearGradient id="SVGID_5_" gradientUnits="userSpaceOnUse" x1="2.0005" y1="39.8989" x2="545.1809" y2="39.8989">
	<stop  offset="0" style="stop-color:#1FC0CE"/>
	<stop  offset="1" style="stop-color:#393E3E"/>
</linearGradient>
<path fill="url(#SVGID_5_)" d="M225.598,4.896h38.303v4h-34.002v28.702h27.899v4h-27.899v29.303H265.8v4h-40.202V4.896
	L225.598,4.896z"/>
<linearGradient id="SVGID_6_" gradientUnits="userSpaceOnUse" x1="2.0005" y1="39.8989" x2="545.1809" y2="39.8989">
	<stop  offset="0" style="stop-color:#1FC0CE"/>
	<stop  offset="1" style="stop-color:#393E3E"/>
</linearGradient>
<path fill="url(#SVGID_6_)" d="M280.198,4.896h4.301v66.004h33.402v4h-37.703V4.896z"/>
<linearGradient id="SVGID_7_" gradientUnits="userSpaceOnUse" x1="2.0005" y1="39.8989" x2="545.1809" y2="39.8989">
	<stop  offset="0" style="stop-color:#1FC0CE"/>
	<stop  offset="1" style="stop-color:#393E3E"/>
</linearGradient>
<path fill="url(#SVGID_7_)" d="M355.299,3.697c19.501,0,35.402,15.601,35.402,35.702C390.702,60,374.8,76.1,355.299,76.1
	s-35.401-16.102-35.401-36.702C319.897,19.297,335.798,3.697,355.299,3.697z M355.299,72c17.102,0,30.901-14.2,30.901-32.602
	c0-17.901-13.801-31.602-30.901-31.602c-17.102,0-30.901,13.701-30.901,31.602C324.397,57.8,338.198,72,355.299,72z"/>
<linearGradient id="SVGID_8_" gradientUnits="userSpaceOnUse" x1="2.0005" y1="71.7515" x2="545.1809" y2="71.7515">
	<stop  offset="0" style="stop-color:#1FC0CE"/>
	<stop  offset="1" style="stop-color:#393E3E"/>
</linearGradient>
<path fill="url(#SVGID_8_)" d="M398.798,68.602h6.102v6.299h-6.102V68.602z"/>
<linearGradient id="SVGID_9_" gradientUnits="userSpaceOnUse" x1="2.0005" y1="49.2993" x2="545.1809" y2="49.2993">
	<stop  offset="0" style="stop-color:#1FC0CE"/>
	<stop  offset="1" style="stop-color:#393E3E"/>
</linearGradient>
<path fill="url(#SVGID_9_)" d="M419.998,24.897h4.2v8.8c0,2.3-0.4,4.101-0.4,4.101h0.2c1.7-4.701,8.7-14.101,21.201-14.101
	c13.001,0,16.501,7.701,16.501,19.501v31.702h-4.2V44.699c0-8.7-1.1-16.901-12.301-16.901c-9.4,0-17.701,6.601-20.201,15.901
	c-0.601,2.101-0.8,4.399-0.8,6.801v24.401h-4.2V24.897L419.998,24.897z"/>
<linearGradient id="SVGID_10_" gradientUnits="userSpaceOnUse" x1="2.0005" y1="49.8989" x2="545.1809" y2="49.8989">
	<stop  offset="0" style="stop-color:#1FC0CE"/>
	<stop  offset="1" style="stop-color:#393E3E"/>
</linearGradient>
<path fill="url(#SVGID_10_)" d="M496.897,23.698c13.603,0,20.401,10.701,20.401,22.802c0,1.101-0.2,2.699-0.2,2.699h-40.103
	c0,14.502,9.801,22.802,21.4,22.802c9.602,0,15.501-6.3,15.501-6.3l2.302,3.5c0,0-7.001,6.899-17.803,6.899
	c-14.101,0-25.801-10.201-25.801-26.102C472.597,33.099,484.097,23.698,496.897,23.698z M512.899,45.299
	c-0.5-12.201-7.801-17.701-16.102-17.701c-9.201,0-17.701,6-19.501,17.701H512.899z"/>
<linearGradient id="SVGID_11_" gradientUnits="userSpaceOnUse" x1="2.0005" y1="43.1489" x2="545.1809" y2="43.1489">
	<stop  offset="0" style="stop-color:#1FC0CE"/>
	<stop  offset="1" style="stop-color:#393E3E"/>
</linearGradient>
<path fill="url(#SVGID_11_)" d="M530.497,28.999h-6.602v-3.8h6.602V10.998h4.2v14.201h13.102v3.8h-13.102V56.5
	c0,13.201,7.899,14.901,11.9,14.901c1.399,0,2.3-0.2,2.3-0.2V75.1c0,0-1,0.199-2.5,0.199c-5.199,0-15.9-1.898-15.9-18.5V28.999z"/>
</svg>
